<svg width="14" height="14" viewBox="0 0 14 14" fill="none" xmlns="http://www.w3.org/2000/svg">
<path d="M9.47339 4.52672C9.41141 4.46423 9.33768 4.41464 9.25644 4.38079C9.1752 4.34695 9.08806 4.32952 9.00005 4.32952C8.91205 4.32952 8.82491 4.34695 8.74367 4.38079C8.66243 4.41464 8.58869 4.46423 8.52672 4.52672L7.00005 6.06005L5.47339 4.52672C5.34785 4.40118 5.17759 4.33066 5.00005 4.33066C4.82252 4.33066 4.65226 4.40118 4.52672 4.52672C4.40118 4.65226 4.33066 4.82252 4.33066 5.00005C4.33066 5.17759 4.40118 5.34785 4.52672 5.47339L6.06005 7.00005L4.52672 8.52672C4.46423 8.58869 4.41464 8.66243 4.38079 8.74367C4.34695 8.82491 4.32952 8.91205 4.32952 9.00005C4.32952 9.08806 4.34695 9.1752 4.38079 9.25644C4.41464 9.33768 4.46423 9.41141 4.52672 9.47339C4.58869 9.53587 4.66243 9.58547 4.74367 9.61931C4.82491 9.65316 4.91204 9.67059 5.00005 9.67059C5.08806 9.67059 5.1752 9.65316 5.25644 9.61931C5.33768 9.58547 5.41141 9.53587 5.47339 9.47339L7.00005 7.94005L8.52672 9.47339C8.58869 9.53587 8.66243 9.58547 8.74367 9.61931C8.82491 9.65316 8.91205 9.67059 9.00005 9.67059C9.08806 9.67059 9.1752 9.65316 9.25644 9.61931C9.33768 9.58547 9.41141 9.53587 9.47339 9.47339C9.53587 9.41141 9.58547 9.33768 9.61931 9.25644C9.65316 9.1752 9.67059 9.08806 9.67059 9.00005C9.67059 8.91205 9.65316 8.82491 9.61931 8.74367C9.58547 8.66243 9.53587 8.58869 9.47339 8.52672L7.94005 7.00005L9.47339 5.47339C9.53587 5.41141 9.58547 5.33768 9.61931 5.25644C9.65316 5.1752 9.67059 5.08806 9.67059 5.00005C9.67059 4.91204 9.65316 4.82491 9.61931 4.74367C9.58547 4.66243 9.53587 4.58869 9.47339 4.52672V4.52672ZM11.7134 2.28672C11.0984 1.64998 10.3628 1.1421 9.54942 0.79271C8.73606 0.443317 7.86126 0.259409 6.97606 0.251717C6.09087 0.244024 5.213 0.412702 4.39369 0.747908C3.57438 1.08311 2.83004 1.57814 2.20409 2.20409C1.57814 2.83004 1.08311 3.57438 0.747908 4.39369C0.412702 5.213 0.244024 6.09087 0.251717 6.97606C0.259409 7.86126 0.443317 8.73606 0.79271 9.54942C1.1421 10.3628 1.64998 11.0984 2.28672 11.7134C2.9017 12.3501 3.63733 12.858 4.45069 13.2074C5.26405 13.5568 6.13885 13.7407 7.02404 13.7484C7.90924 13.7561 8.7871 13.5874 9.60641 13.2522C10.4257 12.917 11.1701 12.422 11.796 11.796C12.422 11.1701 12.917 10.4257 13.2522 9.60641C13.5874 8.7871 13.7561 7.90924 13.7484 7.02404C13.7407 6.13885 13.5568 5.26405 13.2074 4.45069C12.858 3.63733 12.3501 2.9017 11.7134 2.28672V2.28672ZM10.7734 10.7734C9.90141 11.6463 8.75375 12.1899 7.52592 12.3116C6.29809 12.4332 5.06606 12.1254 4.03973 11.4406C3.01341 10.7557 2.25629 9.73619 1.89737 8.55571C1.53844 7.37523 1.59992 6.10681 2.07133 4.96658C2.54273 3.82634 3.3949 2.88482 4.48265 2.30243C5.57039 1.72004 6.82642 1.53281 8.03672 1.77264C9.24703 2.01246 10.3368 2.66451 11.1202 3.61769C11.9037 4.57087 12.3324 5.76621 12.3334 7.00005C12.3358 7.70091 12.1991 8.39528 11.9313 9.04298C11.6636 9.69067 11.27 10.2788 10.7734 10.7734V10.7734Z" fill="white"/>
</svg>
