<svg width="11" height="9" viewBox="0 0 11 9" fill="none" xmlns="http://www.w3.org/2000/svg">
<path d="M8.64553 0.44041L4.12641 5.38227L2.35447 3.43547C2.09582 3.15348 1.74501 2.99506 1.37922 2.99506C1.01342 2.99506 0.662616 3.15348 0.403963 3.43547C0.14531 3.71746 2.72535e-09 4.09993 0 4.49872C-2.72535e-09 4.89752 0.14531 5.27998 0.403963 5.56197L3.15115 8.55703C3.27885 8.69739 3.43077 8.8088 3.59815 8.88483C3.76554 8.96086 3.94507 9 4.12641 9C4.30774 9 4.48727 8.96086 4.65466 8.88483C4.82204 8.8088 4.97396 8.69739 5.10166 8.55703L10.596 2.56691C10.8547 2.28492 11 1.90245 11 1.50366C11 1.10486 10.8547 0.722401 10.596 0.44041C10.3374 0.158419 9.98658 0 9.62079 0C9.255 0 8.90419 0.158419 8.64553 0.44041Z" fill="black"/>
</svg>
