<svg width="25" height="26" viewBox="0 0 25 26" fill="none" xmlns="http://www.w3.org/2000/svg">
<path d="M9.27082 18.1867C9.0648 18.1867 8.86341 18.2478 8.6921 18.3623C8.5208 18.4768 8.38729 18.6394 8.30845 18.8298C8.22961 19.0201 8.20898 19.2296 8.24917 19.4316C8.28936 19.6337 8.38857 19.8193 8.53425 19.965C8.67993 20.1107 8.86554 20.2099 9.0676 20.2501C9.26967 20.2903 9.47911 20.2696 9.66945 20.1908C9.85979 20.1119 10.0225 19.9784 10.1369 19.8071C10.2514 19.6358 10.3125 19.4344 10.3125 19.2284C10.3125 18.9521 10.2027 18.6872 10.0074 18.4918C9.81204 18.2965 9.54709 18.1867 9.27082 18.1867ZM6.14582 18.1867C5.9398 18.1867 5.73841 18.2478 5.5671 18.3623C5.3958 18.4768 5.26229 18.6394 5.18345 18.8298C5.10461 19.0201 5.08398 19.2296 5.12417 19.4316C5.16436 19.6337 5.26357 19.8193 5.40925 19.965C5.55493 20.1107 5.74054 20.2099 5.9426 20.2501C6.14467 20.2903 6.35411 20.2696 6.54445 20.1908C6.73479 20.1119 6.89748 19.9784 7.01194 19.8071C7.1264 19.6358 7.18749 19.4344 7.18749 19.2284C7.18749 18.9521 7.07774 18.6872 6.88239 18.4918C6.68704 18.2965 6.42209 18.1867 6.14582 18.1867ZM12.3958 18.1867C12.1898 18.1867 11.9884 18.2478 11.8171 18.3623C11.6458 18.4768 11.5123 18.6394 11.4334 18.8298C11.3546 19.0201 11.334 19.2296 11.3742 19.4316C11.4144 19.6337 11.5136 19.8193 11.6593 19.965C11.8049 20.1107 11.9905 20.2099 12.1926 20.2501C12.3947 20.2903 12.6041 20.2696 12.7945 20.1908C12.9848 20.1119 13.1475 19.9784 13.2619 19.8071C13.3764 19.6358 13.4375 19.4344 13.4375 19.2284C13.4375 18.9521 13.3277 18.6872 13.1324 18.4918C12.937 18.2965 12.6721 18.1867 12.3958 18.1867ZM15.625 9.33258C15.7166 9.17473 15.848 9.0437 16.0061 8.95262C16.1643 8.86153 16.3435 8.81359 16.526 8.81359C16.7085 8.81359 16.8878 8.86153 17.0459 8.95262C17.2041 9.0437 17.3355 9.17473 17.4271 9.33258C17.5645 9.57084 17.7906 9.74509 18.056 9.81729C18.3214 9.8895 18.6046 9.8538 18.8437 9.718C18.9666 9.65351 19.0754 9.56511 19.1636 9.45801C19.2518 9.35091 19.3178 9.22726 19.3576 9.09432C19.3973 8.96138 19.4102 8.82183 19.3953 8.68386C19.3804 8.5459 19.3381 8.4123 19.2708 8.29091C18.9968 7.81491 18.6022 7.41953 18.1267 7.14461C17.6513 6.86969 17.1117 6.72494 16.5625 6.72494C16.0133 6.72494 15.4737 6.86969 14.9983 7.14461C14.5228 7.41953 14.1282 7.81491 13.8542 8.29091C13.7662 8.521 13.7626 8.7748 13.8441 9.00727C13.9255 9.23973 14.0867 9.43582 14.299 9.56071C14.5113 9.68559 14.761 9.7312 15.0038 9.68944C15.2465 9.64768 15.4666 9.52124 15.625 9.33258ZM22.9167 6.20758C22.2764 5.10017 21.356 4.18069 20.248 3.54144C19.14 2.90219 17.8833 2.56567 16.6042 2.56567C15.325 2.56567 14.0683 2.90219 12.9603 3.54144C11.8523 4.18069 10.9319 5.10017 10.2917 6.20758C10.2228 6.32647 10.1781 6.45781 10.1602 6.59404C10.1423 6.73027 10.1515 6.86869 10.1874 7.00133C10.2232 7.13398 10.2849 7.25823 10.3689 7.36692C10.453 7.47562 10.5577 7.56661 10.6771 7.63466C10.8204 7.71628 10.9811 7.76269 11.1458 7.77008C11.3294 7.77081 11.5099 7.72302 11.669 7.63156C11.8281 7.5401 11.9603 7.40821 12.0521 7.24925C12.5092 6.45754 13.1667 5.80011 13.9584 5.34303C14.7502 4.88594 15.6483 4.64531 16.5625 4.64531C17.4767 4.64531 18.3748 4.88594 19.1665 5.34303C19.9583 5.80011 20.6158 6.45754 21.0729 7.24925C21.141 7.36861 21.232 7.47333 21.3406 7.55738C21.4493 7.64142 21.5736 7.70313 21.7062 7.73896C21.8389 7.77478 21.9773 7.78401 22.1135 7.76611C22.2498 7.74821 22.3811 7.70354 22.5 7.63466C22.622 7.56927 22.7297 7.48022 22.8169 7.37271C22.9041 7.26521 22.969 7.14141 23.0077 7.00855C23.0465 6.87568 23.0585 6.73642 23.0428 6.59889C23.0272 6.46137 22.9843 6.32834 22.9167 6.20758ZM18.6458 15.0617H17.6042V11.9367C17.6042 11.6605 17.4944 11.3955 17.2991 11.2002C17.1037 11.0048 16.8388 10.8951 16.5625 10.8951C16.2862 10.8951 16.0213 11.0048 15.8259 11.2002C15.6306 11.3955 15.5208 11.6605 15.5208 11.9367V15.0617H5.10416C4.27535 15.0617 3.4805 15.391 2.89445 15.977C2.3084 16.5631 1.97916 17.3579 1.97916 18.1867V20.2701C1.97916 21.0989 2.3084 21.8937 2.89445 22.4798C3.4805 23.0658 4.27535 23.3951 5.10416 23.3951H18.6458C19.4746 23.3951 20.2695 23.0658 20.8555 22.4798C21.4416 21.8937 21.7708 21.0989 21.7708 20.2701V18.1867C21.7708 17.3579 21.4416 16.5631 20.8555 15.977C20.2695 15.391 19.4746 15.0617 18.6458 15.0617ZM19.6875 20.2701C19.6875 20.5464 19.5777 20.8113 19.3824 21.0067C19.187 21.202 18.9221 21.3117 18.6458 21.3117H5.10416C4.82789 21.3117 4.56294 21.202 4.36759 21.0067C4.17224 20.8113 4.06249 20.5464 4.06249 20.2701V18.1867C4.06249 17.9105 4.17224 17.6455 4.36759 17.4502C4.56294 17.2548 4.82789 17.1451 5.10416 17.1451H18.6458C18.9221 17.1451 19.187 17.2548 19.3824 17.4502C19.5777 17.6455 19.6875 17.9105 19.6875 18.1867V20.2701Z" fill="#272A43"/>
</svg>
